Coordinates
version=1
nRows=13
nColumns=22
inDegrees=yes

Units are S.I. units (second, meters, Newtons, ...)
If the header above contains a line with 'inDegrees', this indicates whether rotational values are in degrees (yes) or radians (no).

endheader
time	pelvis_tilt	pelvis_list	pelvis_rotation	pelvis_tx	pelvis_ty	pelvis_tz	hip_flexion_r	hip_adduction_r	hip_rotation_r	knee_angle_r	ankle_angle_r	subtalar_angle_r	hip_flexion_l	hip_adduction_l	hip_rotation_l	knee_angle_l	ankle_angle_l	subtalar_angle_l	lumbar_extension	lumbar_bending	lumbar_rotation
      0.01000000	     -1.54692971	     -5.59500310	      3.67658674	      0.16134621	      0.92733708	      1.19211298	      0.71451590	      7.53320330	    -10.44340182	    -15.83009131	     16.01835268	      1.64732658	     23.26990277	     -7.27156949	      0.28782513	    -54.77368952	      6.47326587	     -5.59723400	    -12.45868632	      3.25725170	     -2.08445006
      0.02000000	     -1.39317971	     -5.51519095	      3.68051842	      0.16323661	      0.92730783	      1.19175801	      0.42411646	      7.43628099	    -10.44720314	    -15.85879111	     16.18251823	      1.70343678	     23.94237021	     -7.13955774	      0.36888507	    -55.91613117	      5.98908893	     -5.69216169	    -12.78422863	      3.16156570	     -1.83560732
      0.03000000	     -1.32869434	     -5.42305518	      3.68354334	      0.16544241	      0.92708464	      1.19126561	      0.22900579	      7.30541703	    -10.47488651	    -15.93130657	     16.35618814	      1.80453457	     24.83359394	     -6.95767582	      0.45524257	    -57.10470491	      5.56344096	     -5.77062513	    -13.02490164	      3.05288785	     -1.56070521
      0.04000000	     -1.23387400	     -5.31917110	      3.66223758	      0.16799578	      0.92688478	      1.19073681	     -0.03109436	      7.16023664	    -10.50801155	    -15.99194854	     16.57373637	      1.90034310	     25.73446213	     -6.78650492	      0.44852660	    -58.20415391	      5.26405869	     -5.69566627	    -13.31070516	      2.92081359	     -1.23247334
      0.05000000	     -1.15998515	     -5.19279977	      3.63087406	      0.17081830	      0.92665140	      1.19013243	     -0.29755932	      6.98786586	    -10.51960332	    -16.03826030	     16.79926040	      1.98927254	     26.65930732	     -6.59300211	      0.37849539	    -59.12451363	      5.08202253	     -5.47365934	    -13.56777573	      2.75612828	     -0.88652037
      0.06000000	     -1.11377724	     -5.05344138	      3.58228793	      0.17384022	      0.92638222	      1.18947736	     -0.55627950	      6.79767151	    -10.52180764	    -16.07026243	     17.01104337	      2.05736867	     27.58397333	     -6.40212494	      0.22832935	    -59.80499901	      5.02669010	     -5.08924668	    -13.78867690	      2.57029744	     -0.52896595
      0.07000000	     -1.07585544	     -4.91584303	      3.53972155	      0.17703467	      0.92610360	      1.18874665	     -0.83207140	      6.60953994	    -10.52093650	    -16.07750483	     17.17984829	      2.07663650	     28.47325948	     -6.22564388	      0.02601285	    -60.21318634	      5.04557251	     -4.58438234	    -13.98800766	      2.38445797	     -0.17381413
      0.08000000	     -1.05983665	     -4.76706684	      3.48482042	      0.18040070	      0.92580650	      1.18798543	     -1.11564657	      6.41060649	    -10.49441139	    -16.04894427	     17.33704711	      2.05678515	     29.31661996	     -6.07094181	     -0.26319603	    -60.32606692	      5.11480024	     -4.11017280	    -14.14453678	      2.17934927	      0.16263902
      0.09000000	     -1.05690256	     -4.62338254	      3.44433096	      0.18390859	      0.92548038	      1.18717405	     -1.40688472	      6.22163093	    -10.45452633	    -15.99849984	     17.48913415	      2.01355176	     30.10712719	     -5.93784413	     -0.58413662	    -60.14891590	      5.21241800	     -3.65418981	    -14.26632339	      1.97590610	      0.49148477
      0.10000000	     -1.07232555	     -4.47731438	      3.41219536	      0.18755480	      0.92512679	      1.18629377	     -1.70456518	      6.02963208	    -10.40738456	    -15.91526309	     17.61942929	      1.97157565	     30.83920832	     -5.81254871	     -0.92627793	    -59.68108034	      5.32308625	     -3.29693153	    -14.35098326	      1.77127895	      0.78271855
      0.11000000	     -1.10851935	     -4.34108473	      3.42286202	      0.19134571	      0.92472837	      1.18532580	     -2.01139170	      5.85497912	    -10.35154829	    -15.78947726	     17.71404712	      1.95186316	     31.52297661	     -5.68636558	     -1.23525055	    -58.93779784	      5.42689715	     -3.09636336	    -14.39000527	      1.57830565	      1.00447801
      0.12000000	     -1.13305955	     -4.20821965	      3.43124214	      0.19527484	      0.92430170	      1.18432565	     -2.32162330	      5.67309298	    -10.36398080	    -15.69944778	     17.87959501	      1.93168427	     32.12521645	     -5.60486341	     -1.59603267	    -57.95722196	      5.45126043	     -2.86740673	    -14.42992079	      1.38440850	      1.25822354
      0.13000000	     -1.18266809	     -4.10251791	      3.50096789	      0.19933913	      0.92379379	      1.18319323	     -2.63358277	      5.52963915	    -10.35343557	    -15.57034770	     18.00212139	      1.94254430	     32.69337665	     -5.51339943	     -1.86498972	    -56.74427666	      5.48326089	     -2.80388462	    -14.42101531	      1.23441045	      1.40952163
